<svg xmlns="http://www.w3.org/2000/svg" viewBox="0 0 192 192">
  <rect width="192" height="192" rx="28" fill="#111"/>
  <!-- neck -->
  <rect x="90" y="18" width="12" height="72" rx="4" fill="#f0a830"/>
  <!-- headstock tuning pegs -->
  <rect x="62" y="14" width="28" height="6" rx="3" fill="#f0a830"/>
  <rect x="102" y="14" width="28" height="6" rx="3" fill="#f0a830"/>
  <circle cx="62" cy="17" r="5" fill="#f0a830"/><circle cx="73" cy="17" r="5" fill="#f0a830"/><circle cx="84" cy="17" r="5" fill="#f0a830"/>
  <circle cx="108" cy="17" r="5" fill="#f0a830"/><circle cx="119" cy="17" r="5" fill="#f0a830"/><circle cx="130" cy="17" r="5" fill="#f0a830"/>
  <!-- body -->
  <ellipse cx="96" cy="130" rx="46" ry="46" fill="#f0a830" opacity="0.15"/>
  <ellipse cx="96" cy="130" rx="46" ry="46" fill="none" stroke="#f0a830" stroke-width="7"/>
  <!-- soundhole -->
  <circle cx="96" cy="130" r="16" fill="none" stroke="#f0a830" stroke-width="4"/>
  <!-- strings (faint) -->
  <line x1="86" y1="88" x2="80" y2="170" stroke="#f0a830" stroke-width="1.2" opacity="0.4"/>
  <line x1="90" y1="88" x2="88" y2="170" stroke="#f0a830" stroke-width="1.2" opacity="0.4"/>
  <line x1="94" y1="88" x2="94" y2="170" stroke="#f0a830" stroke-width="1.2" opacity="0.4"/>
  <line x1="98" y1="88" x2="100" y2="170" stroke="#f0a830" stroke-width="1.2" opacity="0.4"/>
  <line x1="102" y1="88" x2="106" y2="170" stroke="#f0a830" stroke-width="1.2" opacity="0.4"/>
  <line x1="106" y1="88" x2="114" y2="170" stroke="#f0a830" stroke-width="1.2" opacity="0.4"/>
</svg>
